<svg width="33" height="38" viewBox="0 0 33 38" fill="none" xmlns="http://www.w3.org/2000/svg">
<g id="Map Pin 6">
<g id="Ellipse 13" filter="url(#filter0_f_1532_26013)">
<path d="M12.803 34.9538C7.78892 33.762 11.1718 9.48565 11.6015 7.67445C12.0311 5.86325 16.4441 5.36114 21.4583 6.55296C26.4724 7.74478 30.1888 10.1792 29.7592 11.9904C29.3295 13.8016 17.8171 36.1456 12.803 34.9538Z" fill="url(#paint0_linear_1532_26013)" fill-opacity="0.8"/>
</g>
<path id="Subtract" fill-rule="evenodd" clip-rule="evenodd" d="M12.4121 35.1667C16.2995 35.1667 24.0743 15.7036 24.0743 10.1164C24.0743 4.52928 18.8529 0 12.4121 0C5.97131 0 0.75 4.52928 0.75 10.1164C0.75 15.7036 8.52475 35.1667 12.4121 35.1667ZM12.7213 14.8393C15.2141 14.8393 17.235 12.8274 17.235 10.3457C17.235 7.86404 15.2141 5.85223 12.7213 5.85223C10.2284 5.85223 8.20749 7.86404 8.20749 10.3457C8.20749 12.8274 10.2284 14.8393 12.7213 14.8393Z" fill="#1B4C8B"/>
<path id="Subtract_2" fill-rule="evenodd" clip-rule="evenodd" d="M12.4426 33.9674C16.0738 33.9674 23.3364 15.6102 23.3364 10.3405C23.3364 5.07077 18.4591 0.798828 12.4426 0.798828C6.42613 0.798828 1.54883 5.07077 1.54883 10.3405C1.54883 15.6102 8.81134 33.9674 12.4426 33.9674ZM12.5561 15.5657C15.5016 15.5657 17.8895 13.1754 17.8895 10.2269C17.8895 7.27835 15.5016 4.8881 12.5561 4.8881C9.61051 4.8881 7.22267 7.27835 7.22267 10.2269C7.22267 13.1754 9.61051 15.5657 12.5561 15.5657Z" fill="#3470B1"/>
<path id="Subtract_3" fill-rule="evenodd" clip-rule="evenodd" d="M12.0043 33.8864C8.19659 31.4625 2.00274 15.4342 2.00274 10.5676C2.00274 5.29795 6.88004 1.02601 12.8965 1.02601C14.7669 1.02601 16.5271 1.43886 18.065 2.16619C16.4237 1.29824 14.4997 0.798828 12.4426 0.798828C6.42613 0.798828 1.54883 5.07077 1.54883 10.3405C1.54883 15.4058 8.25883 32.5629 12.0043 33.8864ZM17.8895 10.2269C17.8895 13.1754 15.5016 15.5657 12.5561 15.5657C11.79 15.5657 11.0617 15.404 10.4032 15.1128C11.174 15.5459 12.0631 15.7928 13.0099 15.7928C15.9555 15.7928 18.3433 13.4026 18.3433 10.4541C18.3433 8.27238 17.036 6.39635 15.1627 5.56809C16.79 6.48234 17.8895 8.22607 17.8895 10.2269Z" fill="#C1DDFC"/>
</g>
<defs>
<filter id="filter0_f_1532_26013" x="7.08789" y="2.90625" width="25.7051" height="35.0938" filterUnits="userSpaceOnUse" color-interpolation-filters="sRGB">
<feFlood flood-opacity="0" result="BackgroundImageFix"/>
<feBlend mode="normal" in="SourceGraphic" in2="BackgroundImageFix" result="shape"/>
<feGaussianBlur stdDeviation="1.5" result="effect1_foregroundBlur_1532_26013"/>
</filter>
<linearGradient id="paint0_linear_1532_26013" x1="21.4583" y1="6.55296" x2="14.6057" y2="35.3823" gradientUnits="userSpaceOnUse">
<stop stop-color="#7E7B7B" stop-opacity="0"/>
<stop offset="0.745" stop-color="#1C1B1B" stop-opacity="0.96"/>
<stop offset="1" stop-color="#181717"/>
</linearGradient>
</defs>
</svg>
